<?xml version="1.0" standalone="no"?><!DOCTYPE svg PUBLIC "-//W3C//DTD SVG 1.1//EN" "http://www.w3.org/Graphics/SVG/1.1/DTD/svg11.dtd"><svg t="1771171824729" class="icon" viewBox="0 0 1024 1024" version="1.1" xmlns="http://www.w3.org/2000/svg" p-id="10905" width="200" height="200" xmlns:xlink="http://www.w3.org/1999/xlink"><path d="M878.2848 681.984l-78.9504-44.7488 68.096-17.408a32.6656 32.6656 0 0 0 24.064-40.0384 33.8944 33.8944 0 0 0-40.96-23.3472L716.8 590.4384 578.8672 512l139.1616-77.5168L849.92 469.7088a33.1776 33.1776 0 0 0 8.9088 1.1264 33.6896 33.6896 0 0 0 32.5632-24.064 32.8704 32.8704 0 0 0-23.7568-40.3456L800.8704 389.12l78.7456-44.032a32.5632 32.5632 0 0 0 12.4928-44.7488 34.7136 34.7136 0 0 0-46.1824-12.0832l-79.2576 44.1344 18.432-66.1504a32.8704 32.8704 0 0 0-23.7568-40.2432 34.2016 34.2016 0 0 0-41.5744 23.04L683.7248 378.88l-137.5232 76.1856V300.2368l96.768-93.7984a32.1536 32.1536 0 0 0 0-46.2848 34.6112 34.6112 0 0 0-47.8208 0l-49.0496 47.5136V119.808a33.792 33.792 0 0 0-67.4816 0v88.6784l-49.4592-48.3328a34.4064 34.4064 0 0 0-47.7184 0 31.9488 31.9488 0 0 0 0 46.2848l97.3824 94.5152V455.68l-138.24-78.4384-35.0208-129.4336a33.9968 33.9968 0 0 0-40.96-23.4496 32.768 32.768 0 0 0-24.064 40.0384l17.8176 66.1504L180.1216 286.72a34.4064 34.4064 0 0 0-25.6-3.3792 33.3824 33.3824 0 0 0-20.48 15.1552 31.744 31.744 0 0 0-3.584 24.8832 33.4848 33.4848 0 0 0 15.6672 20.48l77.2096 43.7248-66.9696 16.896a32.8704 32.8704 0 0 0-24.8832 35.9424 33.3824 33.3824 0 0 0 33.3824 28.5696 30.72 30.72 0 0 0 8.6016-1.1264l132.5056-33.6896L444.3136 512l-138.5472 76.9024-133.12-35.0208a34.0992 34.0992 0 0 0-41.472 23.04 32.9728 32.9728 0 0 0 23.7568 40.3456L222.72 634.88l-78.336 43.7248a32.4608 32.4608 0 0 0-12.4928 44.7488 34.2016 34.2016 0 0 0 29.3888 16.4864 35.328 35.328 0 0 0 16.7936-4.3008L256 692.3264 237.4656 757.76a32.3584 32.3584 0 0 0 5.8368 28.4672A34.304 34.304 0 0 0 270.1312 798.72a33.8944 33.8944 0 0 0 32.6656-24.064l35.7376-128.2048 140.0832-78.0288v155.7504L381.2352 819.2a32.1536 32.1536 0 0 0 0 46.3872 34.6112 34.6112 0 0 0 47.7184 0l49.7664-48.3328v86.9376a33.792 33.792 0 0 0 67.4816 0v-86.7328l49.0496 47.616a34.5088 34.5088 0 0 0 47.8208 0 32.256 32.256 0 0 0 0-46.3872l-96.768-93.7984V569.7536l137.1136 77.7216 34.7136 128.4096a33.5872 33.5872 0 0 0 32.6656 24.4736 29.7984 29.7984 0 0 0 8.4992-1.1264 33.9968 33.9968 0 0 0 20.48-15.2576 32.0512 32.0512 0 0 0 3.4816-24.8832l-17.7152-65.024 78.4384 44.3392A34.4064 34.4064 0 0 0 890.88 727.04a32.256 32.256 0 0 0-12.1856-44.6464" fill="#a4efff" p-id="10906"></path></svg>